<svg xmlns="http://www.w3.org/2000/svg" width="64" height="64" viewBox="0 0 64 64" fill="none">
  <!-- Versión monocromática para uso en diferentes contextos -->
  
  <!-- Fondo -->
  <rect width="64" height="64" rx="16" ry="16" fill="currentColor"/>
  
  <!-- Icono de birrete -->
  <g transform="translate(16, 16)" fill="white">
    <!-- Base del birrete -->
    <path d="M16 6L30 11V14C30 19.52 25.52 24 20 24C14.48 24 10 19.52 10 14V11L16 6Z"/>
    
    <!-- Parte superior -->
    <ellipse cx="20" cy="11" rx="10" ry="2"/>
    
    <!-- Banda -->
    <path d="M10 14C10 15.1 10.9 16 12 16H28C29.1 16 30 15.1 30 14V12H10V14Z"/>
    
    <!-- Borla -->
    <circle cx="26" cy="10" r="2"/>
    <line x1="26" y1="12" x2="26" y2="16" stroke="white" stroke-width="1"/>
    <circle cx="26" cy="16" r="1"/>
  </g>
</svg>
