<svg xmlns="http://www.w3.org/2000/svg" width="44" height="44" viewBox="0 0 44 44" fill="none">
  <defs>
    <!-- Gradiente azul del proyecto -->
    <linearGradient id="brandGradient" x1="0%" y1="0%" x2="0%" y2="100%">
      <stop offset="0%" style="stop-color:#2e5bff;stop-opacity:1" />
      <stop offset="100%" style="stop-color:#3fa2ff;stop-opacity:1" />
    </linearGradient>
  </defs>
  
  <!-- Fondo redondeado con gradiente -->
  <rect width="44" height="44" rx="12" ry="12" fill="url(#brandGradient)" />
  
  <!-- Icono de birrete (graduación) -->
  <g transform="translate(11, 11)">
    <path d="M11 2L21 6V8C21 12.97 16.97 17 12 17C7.03 17 3 12.97 3 8V6L11 2Z" fill="white"/>
    <path d="M11 2L21 6L11 10L1 6L11 2Z" fill="white" opacity="0.9"/>
    <path d="M19 8V12C19 13.1 18.1 14 17 14H7C5.9 14 5 13.1 5 12V8" fill="white" opacity="0.8"/>
    <!-- Borla del birrete -->
    <circle cx="19" cy="7" r="1.5" fill="white" opacity="0.9"/>
    <line x1="19" y1="8.5" x2="19" y2="11" stroke="white" stroke-width="0.5" opacity="0.8"/>
  </g>
</svg>
